<svg width="34" height="40" viewBox="0 0 34 40" fill="none" xmlns="http://www.w3.org/2000/svg">
<path fill-rule="evenodd" clip-rule="evenodd" d="M8.34357 7.21955C8.28858 8.73801 8.57532 11.4264 12.597 14.6048C15.9864 17.2837 18.9818 20.2538 19.8785 24.0303C20.6747 27.3821 20.1697 37.0742 13.9865 33.5777C10.9636 31.869 6.82903 28.6323 7.08435 23.816C7.08435 23.816 7.21285 22.5787 6.6315 22.5293C6.05184 22.4799 4.65572 28.9623 10.619 34.0967C16.5806 39.2312 26.1134 38.2952 29.9426 35.2746C29.9426 35.2746 30.703 34.6051 30.9398 34.7011C31.0458 34.7426 30.8607 35.4216 29.9005 36.1331C11.4113 49.8397 -12.1949 24.0326 7.33911 6.68083C8.76218 5.41713 8.38958 5.94799 8.34357 7.21955Z" fill="#163A34"/>
<path fill-rule="evenodd" clip-rule="evenodd" d="M22.6727 1.43301C22.8966 3.15517 22.8579 6.22014 18.6308 10.0427C17.5753 10.9972 16.5619 11.9786 15.6421 13.001C15.5703 13.0953 14.8694 14.0751 15.8997 15.2535C16.8733 16.3685 23.7092 22.6039 21.9073 28.3815C21.404 29.997 22.2249 29.2137 22.6896 28.7344C24.7753 26.5824 26.3875 23.7183 25.8701 20.2089C25.8701 20.2089 25.5941 18.8111 26.2472 18.723C26.901 18.6372 29.1753 25.9225 22.9544 32.0676C22.2973 32.7163 21.5869 33.2898 20.8389 33.7932C20.8389 33.7932 20.5482 34.1428 20.8417 34.42C20.904 34.4789 21.354 34.6158 21.9281 34.3582C37.8259 27.2092 36.2138 10.4461 23.7552 0.768057C22.0055 -0.590477 22.4853 -0.00800906 22.6727 1.43301Z" fill="#FE9F6B"/>
</svg>
